<?xml version="1.0" standalone="no"?>
<!DOCTYPE svg PUBLIC "-//W3C//DTD SVG 20010904//EN"
 "http://www.w3.org/TR/2001/REC-SVG-20010904/DTD/svg10.dtd">
<svg version="1.0" xmlns="http://www.w3.org/2000/svg"
 width="512.000000pt" height="512.000000pt" viewBox="0 0 512.000000 512.000000"
 preserveAspectRatio="xMidYMid meet">

<g transform="translate(0.000000,512.000000) scale(0.100000,-0.100000)"
fill="#037B79" stroke="none">
<path d="M4750 4866 c-20 -7 -247 -101 -506 -209 -258 -108 -492 -201 -519
-207 -58 -13 -76 -10 -228 41 -165 55 -329 95 -492 121 -191 30 -675 33 -855
5 -178 -28 -331 -64 -500 -120 -113 -37 -170 -51 -211 -50 -50 0 -117 24 -575
209 -517 208 -519 209 -594 209 -89 -1 -136 -21 -194 -85 -77 -85 -71 16 -74
-1250 -3 -1179 0 -1290 38 -1475 67 -318 205 -611 406 -860 90 -112 282 -301
394 -387 403 -311 899 -504 1434 -559 153 -15 541 -7 691 15 877 130 1600 618
1940 1310 114 232 183 483 205 746 8 94 10 470 8 1245 -3 1101 -3 1110 -24
1155 -25 55 -72 104 -128 132 -51 26 -165 34 -216 14z m-2972 -2408 c108 -41
214 -155 248 -268 80 -269 -122 -540 -402 -540 -231 0 -416 186 -416 419 0
200 139 370 334 411 60 12 171 2 236 -22z m1786 22 c199 -32 348 -208 348
-410 0 -406 -508 -574 -754 -249 -98 130 -108 319 -23 463 54 93 170 174 277
195 60 12 84 12 152 1z"/>
</g>
</svg>
