<?xml version="1.0" standalone="no"?>
<!DOCTYPE svg PUBLIC "-//W3C//DTD SVG 20010904//EN"
 "http://www.w3.org/TR/2001/REC-SVG-20010904/DTD/svg10.dtd">
<svg version="1.0" xmlns="http://www.w3.org/2000/svg"
 width="512.000000pt" height="512.000000pt" viewBox="0 0 512.000000 512.000000"
 preserveAspectRatio="xMidYMid meet">

<g transform="translate(0.000000,512.000000) scale(0.100000,-0.100000)"
fill="#ffffff" stroke="none">
<path d="M3440 5105 c-214 -37 -363 -100 -528 -225 -91 -69 -2437 -2416 -2504
-2505 -348 -462 -399 -1073 -133 -1583 276 -528 844 -839 1433 -784 293 28
515 112 762 290 96 69 2491 2469 2522 2527 37 70 24 166 -31 229 -46 52 -158
73 -224 40 -18 -9 -585 -568 -1262 -1243 -950 -948 -1246 -1239 -1302 -1275
-361 -235 -831 -235 -1186 1 -440 292 -604 864 -387 1348 80 178 64 161 1304
1403 639 640 1194 1190 1234 1223 130 105 264 156 437 166 258 15 494 -98 656
-312 124 -164 159 -378 94 -571 -58 -173 -22 -133 -1074 -1187 -531 -532 -986
-981 -1011 -998 -111 -74 -285 -90 -401 -37 -62 28 -119 81 -145 136 -38 79
-27 207 28 317 13 26 308 328 834 855 568 570 818 826 829 852 40 97 -13 221
-110 258 -46 18 -119 14 -162 -9 -21 -12 -402 -383 -854 -833 -859 -856 -872
-870 -932 -1018 -44 -109 -51 -148 -51 -300 -1 -113 3 -158 17 -204 40 -130
116 -246 217 -330 57 -47 185 -109 275 -132 97 -25 333 -26 425 0 99 27 240
99 322 165 122 100 1928 1915 1995 2007 151 206 225 421 224 655 0 247 -77
457 -239 660 -252 314 -683 481 -1072 414z"/>
</g>
</svg>
