<?xml version="1.0" standalone="no"?>
<!DOCTYPE svg PUBLIC "-//W3C//DTD SVG 20010904//EN"
 "http://www.w3.org/TR/2001/REC-SVG-20010904/DTD/svg10.dtd">
<svg version="1.0" xmlns="http://www.w3.org/2000/svg"
 width="512.000000pt" height="512.000000pt" viewBox="0 0 512.000000 512.000000"
 preserveAspectRatio="xMidYMid meet">

<g transform="translate(0.000000,512.000000) scale(0.100000,-0.100000)"
fill="#037B79" stroke="none">
<path d="M1275 4894 c-414 -40 -742 -240 -977 -594 -345 -521 -391 -1209 -122
-1857 325 -786 1047 -1496 2156 -2119 177 -100 212 -112 268 -95 73 22 435
232 700 407 1408 928 2051 2105 1743 3188 -50 176 -119 324 -225 482 -133 201
-336 378 -542 475 -176 82 -322 113 -541 113 -410 -1 -781 -158 -1102 -467
l-73 -70 -72 70 c-252 242 -537 392 -855 448 -90 16 -286 26 -358 19z"/>
</g>
</svg>
