<?xml version="1.0" standalone="no"?>
<!DOCTYPE svg PUBLIC "-//W3C//DTD SVG 20010904//EN"
 "http://www.w3.org/TR/2001/REC-SVG-20010904/DTD/svg10.dtd">
<svg version="1.0" xmlns="http://www.w3.org/2000/svg"
 width="512.000000pt" height="512.000000pt" viewBox="0 0 512.000000 512.000000"
 preserveAspectRatio="xMidYMid meet">

<g transform="translate(0.000000,512.000000) scale(0.100000,-0.100000)"
fill="#1fa8a6" stroke="none">
<path d="M1275 4894 c-414 -40 -742 -240 -977 -594 -345 -521 -391 -1209 -122
-1857 325 -786 1047 -1496 2156 -2119 177 -100 212 -112 268 -95 73 22 435
232 700 407 1408 928 2051 2105 1743 3188 -50 176 -119 324 -225 482 -133 201
-336 378 -542 475 -176 82 -322 113 -541 113 -410 -1 -781 -158 -1102 -467
l-73 -70 -72 70 c-252 242 -537 392 -855 448 -90 16 -286 26 -358 19z m313
-360 c297 -53 603 -246 793 -500 75 -100 110 -124 179 -124 65 0 102 24 168
108 256 328 556 499 928 532 414 36 758 -170 963 -579 146 -289 192 -640 131
-992 -123 -717 -704 -1441 -1665 -2074 -166 -110 -398 -251 -483 -294 l-42
-21 -42 21 c-88 45 -362 212 -515 315 -961 644 -1518 1352 -1640 2080 -23 143
-23 410 1 544 61 344 234 656 453 818 229 169 468 221 771 166z"/>
</g>
</svg>
