<?xml version="1.0" standalone="no"?>
<!DOCTYPE svg PUBLIC "-//W3C//DTD SVG 20010904//EN"
 "http://www.w3.org/TR/2001/REC-SVG-20010904/DTD/svg10.dtd">
<svg version="1.0" xmlns="http://www.w3.org/2000/svg"
 width="512.000000pt" height="512.000000pt" viewBox="0 0 512.000000 512.000000"
 preserveAspectRatio="xMidYMid meet">

<g transform="translate(0.000000,512.000000) scale(0.100000,-0.100000)"
fill="#ffffff" stroke="none">
<path d="M521 4274 c-122 -33 -240 -122 -301 -229 -63 -110 -60 -40 -60 -1485
0 -1445 -3 -1375 60 -1485 40 -70 118 -146 188 -183 124 -66 -24 -62 2152 -62
2177 0 2028 -4 2152 62 112 60 209 186 237 308 7 30 11 489 11 1360 0 1445 3
1375 -60 1485 -40 70 -118 146 -188 183 -124 66 25 62 -2157 61 -1696 0 -1988
-2 -2034 -15z m2942 -805 l-903 -502 -902 502 -903 501 1805 0 1805 0 -902
-501z m-1952 -285 c933 -518 1005 -556 1050 -556 44 0 117 38 1058 561 555
308 1012 561 1015 561 4 0 6 -560 6 -1244 l0 -1243 -22 -33 c-13 -18 -36 -43
-51 -54 l-28 -21 -1979 0 -1979 0 -28 21 c-15 11 -38 36 -50 54 l-23 33 0
1245 c0 1101 2 1243 15 1238 8 -3 466 -256 1016 -562z"/>
</g>
</svg>
