<?xml version="1.0" standalone="no"?>
<!DOCTYPE svg PUBLIC "-//W3C//DTD SVG 20010904//EN"
 "http://www.w3.org/TR/2001/REC-SVG-20010904/DTD/svg10.dtd">
<svg version="1.0" xmlns="http://www.w3.org/2000/svg"
 width="512.000000pt" height="512.000000pt" viewBox="0 0 512.000000 512.000000"
 preserveAspectRatio="xMidYMid meet">

<g transform="translate(0.000000,512.000000) scale(0.100000,-0.100000)"
fill="#000000" stroke="none">
<path d="M2375 4900 c-791 -70 -1478 -511 -1864 -1197 -359 -639 -393 -1420
-91 -2103 227 -514 666 -953 1180 -1180 791 -350 1686 -248 2379 272 182 137
399 367 529 560 453 677 523 1534 187 2279 -241 536 -709 985 -1253 1203 -334
134 -729 196 -1067 166z m490 -444 c202 -36 347 -83 524 -167 400 -191 708
-500 901 -901 458 -955 56 -2096 -900 -2557 -866 -418 -1907 -127 -2437 680
-143 218 -238 464 -290 749 -24 133 -24 467 0 600 38 210 83 352 167 528 287
600 847 998 1520 1081 107 14 408 6 515 -13z"/>
<path d="M1819 3387 c-64 -34 -102 -93 -107 -166 -8 -106 -4 -111 281 -399
l261 -262 -256 -258 c-168 -168 -262 -270 -273 -294 -56 -136 32 -286 174
-296 106 -8 111 -4 399 281 l262 261 263 -261 c287 -285 292 -289 398 -281
142 10 230 160 174 296 -11 24 -105 126 -273 294 l-256 258 261 262 c285 288
289 293 281 399 -10 142 -160 230 -296 174 -24 -11 -126 -105 -294 -273 l-258
-256 -257 256 c-169 168 -271 262 -295 273 -56 23 -136 19 -189 -8z"/>
</g>
</svg>
