<?xml version="1.0" standalone="no"?>
<!DOCTYPE svg PUBLIC "-//W3C//DTD SVG 20010904//EN"
 "http://www.w3.org/TR/2001/REC-SVG-20010904/DTD/svg10.dtd">
<svg version="1.0" xmlns="http://www.w3.org/2000/svg"
 width="512.000000pt" height="512.000000pt" viewBox="0 0 512.000000 512.000000"
 preserveAspectRatio="xMidYMid meet">

<g transform="translate(0.000000,512.000000) scale(0.100000,-0.100000)"
fill="#1fa8a6" stroke="none">
<path d="M2680 4785 c-74 -21 -153 -70 -204 -126 -22 -26 -72 -102 -110 -170
-151 -270 -377 -630 -548 -873 -106 -150 -289 -396 -295 -396 -3 0 -14 11 -24
24 -44 56 -45 56 -572 56 l-484 0 -33 -22 c-18 -13 -43 -36 -54 -51 l-21 -28
0 -1314 0 -1314 21 -28 c11 -15 36 -38 54 -51 l34 -23 495 3 496 3 32 23 c17
12 39 40 49 61 l17 39 76 -64 c91 -77 214 -143 337 -181 l89 -27 542 -4 c603
-3 651 0 805 59 105 41 240 132 317 215 69 73 959 1399 1016 1513 173 344 30
781 -314 960 -152 79 -169 81 -713 81 -449 0 -478 1 -478 18 0 9 45 220 100
467 107 483 114 536 85 650 -22 83 -64 170 -114 233 -55 69 -262 223 -338 252
-76 29 -190 35 -263 15z"/>
</g>
</svg>
