<?xml version="1.0" standalone="no"?>
<!DOCTYPE svg PUBLIC "-//W3C//DTD SVG 20010904//EN"
 "http://www.w3.org/TR/2001/REC-SVG-20010904/DTD/svg10.dtd">
<svg version="1.0" xmlns="http://www.w3.org/2000/svg"
 width="512.000000pt" height="512.000000pt" viewBox="0 0 512.000000 512.000000"
 preserveAspectRatio="xMidYMid meet">

<g transform="translate(0.000000,512.000000) scale(0.100000,-0.100000)"
fill="#ffffff" stroke="none">
<path d="M2395 4949 c-153 -22 -356 -101 -486 -190 -135 -91 -284 -256 -362
-399 -106 -195 -137 -332 -144 -652 l-6 -237 -46 -6 c-202 -25 -361 -103 -488
-237 -98 -104 -170 -246 -193 -378 -8 -46 -10 -366 -8 -1075 l3 -1010 26 -77
c74 -214 235 -391 431 -469 141 -57 48 -53 1393 -57 834 -2 1262 1 1308 8 255
39 479 214 579 452 59 140 58 115 58 1193 0 944 -1 994 -19 1070 -34 140 -91
244 -190 348 -124 131 -281 207 -482 232 l-46 6 -6 232 c-6 255 -18 341 -69
485 -57 164 -131 283 -253 410 -106 111 -187 172 -320 237 -216 107 -452 147
-680 114z m382 -338 c298 -85 514 -305 594 -606 18 -66 22 -119 26 -307 l6
-228 -843 0 -843 0 6 228 c4 188 8 241 26 307 89 334 354 574 696 629 67 10
261 -3 332 -23z m1038 -1486 c123 -32 222 -115 278 -234 29 -61 31 -74 39
-237 5 -95 7 -550 6 -1012 l-3 -838 -37 -75 c-46 -93 -112 -158 -206 -202
l-67 -32 -1242 -3 c-1236 -2 -1243 -2 -1305 19 -130 44 -230 144 -272 275 -15
45 -16 145 -14 1045 l3 994 31 65 c57 118 155 202 274 234 85 23 2428 23 2515
1z"/>
<path d="M2453 2542 c-209 -75 -278 -317 -142 -499 l38 -51 3 -394 3 -394 25
-37 c14 -21 43 -50 64 -65 35 -24 49 -27 116 -27 67 0 81 3 116 27 21 15 50
44 64 65 l25 37 3 394 3 394 38 51 c160 214 30 500 -232 514 -52 3 -86 -1
-124 -15z"/>
</g>
</svg>
