<?xml version="1.0" standalone="no"?>
<!DOCTYPE svg PUBLIC "-//W3C//DTD SVG 20010904//EN"
 "http://www.w3.org/TR/2001/REC-SVG-20010904/DTD/svg10.dtd">
<svg version="1.0" xmlns="http://www.w3.org/2000/svg"
 width="512.000000pt" height="512.000000pt" viewBox="0 0 512.000000 512.000000"
 preserveAspectRatio="xMidYMid meet">

<g transform="translate(0.000000,512.000000) scale(0.100000,-0.100000)"
fill="#ffffff" stroke="none">
<path d="M2375 4899 c-782 -64 -1478 -510 -1864 -1196 -324 -576 -385 -1281
-167 -1912 116 -333 289 -611 540 -869 705 -723 1792 -913 2701 -472 491 239
898 659 1115 1150 358 809 242 1724 -306 2422 -129 164 -385 396 -564 510
-199 127 -446 236 -665 293 -166 44 -277 62 -445 75 -150 11 -199 11 -345 -1z
m490 -443 c202 -36 347 -83 524 -167 740 -354 1172 -1135 1076 -1949 -83 -714
-559 -1324 -1230 -1575 -844 -316 -1787 -8 -2282 746 -143 218 -238 464 -290
749 -24 133 -24 467 0 600 39 211 83 352 168 529 286 598 847 997 1519 1080
107 14 408 6 515 -13z"/>
<path d="M2480 3824 c-42 -18 -86 -58 -108 -99 -15 -26 -18 -86 -22 -490 l-5
-460 -460 -5 c-503 -5 -487 -3 -547 -67 -76 -80 -76 -206 0 -286 60 -64 44
-62 547 -67 l460 -5 5 -460 c5 -503 3 -487 67 -547 80 -76 206 -76 286 0 64
60 62 44 67 547 l5 460 460 5 c503 5 487 3 547 67 76 80 76 206 0 286 -60 64
-44 62 -547 67 l-460 5 -5 460 c-5 503 -3 487 -67 547 -58 56 -151 73 -223 42z"/>
</g>
</svg>
