<?xml version="1.0" standalone="no"?>
<!DOCTYPE svg PUBLIC "-//W3C//DTD SVG 20010904//EN"
 "http://www.w3.org/TR/2001/REC-SVG-20010904/DTD/svg10.dtd">
<svg version="1.0" xmlns="http://www.w3.org/2000/svg"
 width="512.000000pt" height="512.000000pt" viewBox="0 0 512.000000 512.000000"
 preserveAspectRatio="xMidYMid meet">

<g transform="translate(0.000000,512.000000) scale(0.100000,-0.100000)"
fill="#5b5b5b" stroke="none">
<path d="M3416 4690 c-81 -26 -144 -97 -178 -202 -19 -55 -22 -94 -26 -310 -5
-279 3 -258 -92 -258 -71 0 -282 -28 -420 -56 -290 -57 -544 -145 -825 -284
-331 -163 -586 -344 -849 -600 -294 -287 -502 -571 -676 -924 -219 -444 -329
-876 -346 -1361 -5 -143 -4 -164 13 -195 37 -71 132 -102 201 -66 16 8 70 67
121 131 542 678 1270 1145 2096 1345 234 57 443 90 676 106 l97 7 4 -249 c6
-303 17 -349 102 -442 53 -57 101 -77 186 -76 88 1 136 20 225 87 33 25 335
321 671 659 517 520 615 622 642 675 102 196 107 387 15 573 -35 72 -67 106
-692 731 -732 731 -706 709 -846 715 -38 2 -83 -1 -99 -6z m765 -947 c460
-462 591 -599 610 -638 35 -74 34 -190 -3 -260 -19 -36 -194 -217 -642 -665
-338 -338 -619 -611 -623 -606 -4 4 -10 153 -13 330 -6 356 -5 355 -73 396
-78 48 -592 9 -962 -72 -763 -166 -1446 -534 -2021 -1090 l-121 -118 17 98
c184 1026 909 1909 1885 2295 333 132 642 197 1026 215 171 8 193 16 229 75
19 30 20 52 20 337 0 168 3 315 6 327 l6 23 37 -29 c20 -16 300 -294 622 -618z"/>
</g>
</svg>
