<?xml version="1.0" standalone="no"?>
<!DOCTYPE svg PUBLIC "-//W3C//DTD SVG 20010904//EN"
 "http://www.w3.org/TR/2001/REC-SVG-20010904/DTD/svg10.dtd">
<svg version="1.0" xmlns="http://www.w3.org/2000/svg"
 width="512.000000pt" height="512.000000pt" viewBox="0 0 512.000000 512.000000"
 preserveAspectRatio="xMidYMid meet">

<g transform="translate(0.000000,512.000000) scale(0.100000,-0.100000)"
fill="#ffffff" stroke="none">
<path d="M2400 4900 c-337 -35 -643 -178 -890 -416 -418 -404 -563 -996 -380
-1546 46 -138 140 -317 221 -419 16 -20 29 -41 29 -47 0 -5 -31 -28 -68 -50
-95 -57 -225 -154 -340 -255 -466 -408 -763 -1051 -766 -1658 -1 -153 -1 -156
26 -197 91 -137 294 -126 369 21 15 29 22 72 29 190 18 290 78 523 197 762
177 352 490 667 839 843 l61 31 144 -73 c472 -237 984 -220 1444 50 l43 25 79
-39 c335 -170 627 -460 807 -804 134 -255 197 -488 216 -795 7 -118 14 -161
29 -190 74 -145 272 -158 366 -25 28 40 30 51 33 141 7 195 -42 493 -119 726
-47 142 -173 403 -256 530 -90 137 -208 278 -339 405 -130 126 -222 198 -373
294 l-99 63 60 84 c121 169 216 397 255 614 23 124 22 378 -1 505 -22 120 -82
303 -134 407 -147 291 -413 552 -703 687 -240 112 -526 162 -779 136z m316
-435 c227 -39 419 -138 580 -299 138 -137 230 -300 287 -506 17 -62 20 -104
21 -245 0 -151 -3 -180 -26 -266 -52 -191 -150 -360 -290 -495 -211 -204 -454
-304 -743 -304 -296 0 -555 110 -762 323 -135 140 -220 288 -271 475 -23 87
-26 114 -26 267 1 151 3 181 27 267 142 532 669 875 1203 783z"/>
</g>
</svg>
